# xmcd
#
# Track frame offsets: 
#        150
#        12700
#        30177
#        49155
#        80675
#        93210
#        109952
#        135022
#        150907
#        163990
#        189855
#
# Disc length: 2794 seconds
#
# Revision: 0
# Processed by: cddbd v1.5.2PL0 Copyright (c) Steve Scherf et al.
# Submitted via: ExactAudioCopy v0.95b3
#
DISCID=790ae80b
DTITLE=Cream - Cream Reunion RRHF  FLAC
DYEAR=1900
DGENRE=
TTITLE0=Sunshine Of Your Love #1
TTITLE1=Sunshine Of Your Love #2
TTITLE2=Sunshine Of Your Love #3
TTITLE3=Sunshine Of Your Love #4
TTITLE4=Sunshine Of Your Love #5 and 6
TTITLE5=Born Under A Bad Sign
TTITLE6=Crossroads #1 and 2
TTITLE7=Crossroads #3
TTITLE8=Instrumental
TTITLE9=Sunshine Of Your Love
TTITLE10=Crossroads
EXTD=
EXTT0=
EXTT1=
EXTT2=
EXTT3=
EXTT4=
EXTT5=
EXTT6=
EXTT7=
EXTT8=
EXTT9=
EXTT10=
PLAYORDER=
